<svg xmlns="http://www.w3.org/2000/svg" xmlns:xlink="http://www.w3.org/1999/xlink" fill="none" version="1.1" width="24" height="24" viewBox="0 0 24 24"><g transform="matrix(1,0,0,-1,0,48)"><g><path d="M12,24Q15.2812,24.046875,18,25.59375Q20.7188,27.1875,22.4062,30Q24,32.85938,24,36Q24,39.1406,22.4062,42Q20.7188,44.8125,18,46.4062Q15.2812,47.9531,12,48Q8.71875,47.9531,6,46.4062Q3.28125,44.8125,1.59375,42Q0,39.1406,0,36Q0,32.85938,1.59375,30Q3.28125,27.1875,6,25.59375Q8.71875,24.046875,12,24ZM17.2969,38.2031L11.2969,32.20312L17.2969,38.2031L11.2969,32.20312Q10.5,31.54688,9.70312,32.20312L6.70312,35.2031Q6.04688,36,6.70312,36.7969Q7.5,37.4531,8.29688,36.7969L10.5,34.5938L15.7031,39.7969Q16.5,40.4531,17.2969,39.7969Q17.9531,39,17.2969,38.2031Z" fill="#000000" fill-opacity="1" style="mix-blend-mode:passthrough"/></g></g></svg>