<svg xmlns="http://www.w3.org/2000/svg" xmlns:xlink="http://www.w3.org/1999/xlink" fill="none" version="1.1" width="24" height="24" viewBox="0 0 24 24"><g transform="matrix(1,0,0,-1,0,48)"><g><path d="M12,48Q15.2812,47.9531,18,46.4062Q20.7188,44.8125,22.4062,42Q24,39.1406,24,36Q24,32.85938,22.4062,30Q20.7188,27.1875,18,25.59375Q15.2812,24.046875,12,24Q8.71875,24.046875,6,25.59375Q3.28125,27.1875,1.59375,30Q0,32.85938,0,36Q0,39.1406,1.59375,42Q3.28125,44.8125,6,46.4062Q8.71875,47.9531,12,48ZM10.875,42.375L10.875,36L10.875,42.375L10.875,36Q10.875,35.3906,11.3906,35.0625L15.8906,32.0625Q16.7812,31.54688,17.4375,32.39062Q17.9531,33.28125,17.1094,33.9375L13.125,36.6094L13.125,42.375Q13.0312,43.4062,12,43.5Q10.9688,43.4062,10.875,42.375Z" fill="#EAB308" fill-opacity="1" style="mix-blend-mode:passthrough"/></g></g></svg>