<svg xmlns="http://www.w3.org/2000/svg" xmlns:xlink="http://www.w3.org/1999/xlink" fill="none" version="1.1" width="18" height="24" viewBox="0 0 18 24"><defs><clipPath id="master_svg0_1_528"><rect x="0" y="0" width="18" height="24" rx="0"/></clipPath></defs><g clip-path="url(#master_svg0_1_528)"><g transform="matrix(1,0,0,-1,0,49.03125)"><g><path d="M3,48.515625Q1.73438,48.468725,0.890625,47.625025Q0.046875,46.781225,0,45.515625L0,27.515625Q0.046875,26.250005,0.890625,25.40625Q1.73438,24.5625,3,24.515625L15,24.515625Q16.2656,24.5625,17.1094,25.40625Q17.9531,26.250005,18,27.515625L18,41.015625L12,41.015625Q11.3438,41.015625,10.9219,41.437525Q10.5,41.859425,10.5,42.515625L10.5,48.515625L3,48.515625ZM12,48.515625L12,42.515625L12,48.515625L12,42.515625L18,42.515625L12,48.515625ZM5.25,36.515625L12.75,36.515625L5.25,36.515625L12.75,36.515625Q13.4531,36.468725,13.5,35.765625Q13.4531,35.062525,12.75,35.015625L5.25,35.015625Q4.54688,35.062525,4.5,35.765625Q4.54688,36.468725,5.25,36.515625ZM5.25,33.515625L12.75,33.515625L5.25,33.515625L12.75,33.515625Q13.4531,33.468745,13.5,32.765625Q13.4531,32.062505,12.75,32.015625L5.25,32.015625Q4.54688,32.062505,4.5,32.765625Q4.54688,33.468745,5.25,33.515625ZM5.25,30.515625L12.75,30.515625L5.25,30.515625L12.75,30.515625Q13.4531,30.468745,13.5,29.765625Q13.4531,29.062505,12.75,29.015625L5.25,29.015625Q4.54688,29.062505,4.5,29.765625Q4.54688,30.468745,5.25,30.515625Z" fill="#000000" fill-opacity="1" style="mix-blend-mode:passthrough"/></g></g></g></svg>